<mxfile host="app.diagrams.net" modified="2021-04-16T03:21:50.949Z" agent="5.0 (Windows NT 10.0; Win64; x64) AppleWebKit/537.36 (KHTML, like Gecko) Chrome/90.0.4430.72 Safari/537.36" etag="XzJslrItI0c1jnsKD8x5" version="14.6.1" type="github">
  <diagram id="R2lEEEUBdFMjLlhIrx00" name="Page-1">
    <mxGraphModel dx="2844" dy="1608" grid="1" gridSize="10" guides="1" tooltips="1" connect="1" arrows="1" fold="1" page="1" pageScale="1" pageWidth="850" pageHeight="1100" math="0" shadow="0" extFonts="Permanent Marker^https://fonts.googleapis.com/css?family=Permanent+Marker">
      <root>
        <mxCell id="0" />
        <mxCell id="1" parent="0" />
        <mxCell id="7MaBJJEsDHiTCgpowhhf-4" style="edgeStyle=orthogonalEdgeStyle;rounded=0;orthogonalLoop=1;jettySize=auto;html=1;entryX=1;entryY=0.5;entryDx=0;entryDy=0;endArrow=none;endFill=0;" edge="1" parent="1" source="7MaBJJEsDHiTCgpowhhf-1" target="7MaBJJEsDHiTCgpowhhf-3">
          <mxGeometry relative="1" as="geometry" />
        </mxCell>
        <mxCell id="7MaBJJEsDHiTCgpowhhf-13" style="edgeStyle=none;rounded=0;orthogonalLoop=1;jettySize=auto;html=1;entryX=0;entryY=0.5;entryDx=0;entryDy=0;endArrow=none;endFill=0;" edge="1" parent="1" source="7MaBJJEsDHiTCgpowhhf-1" target="7MaBJJEsDHiTCgpowhhf-12">
          <mxGeometry relative="1" as="geometry" />
        </mxCell>
        <mxCell id="7MaBJJEsDHiTCgpowhhf-1" value="usuario" style="rounded=0;whiteSpace=wrap;html=1;fontSize=16;" vertex="1" parent="1">
          <mxGeometry x="830" y="360" width="120" height="60" as="geometry" />
        </mxCell>
        <mxCell id="7MaBJJEsDHiTCgpowhhf-3" value="" style="triangle;whiteSpace=wrap;html=1;rotation=-90;" vertex="1" parent="1">
          <mxGeometry x="875" y="460" width="30" height="40" as="geometry" />
        </mxCell>
        <mxCell id="7MaBJJEsDHiTCgpowhhf-7" style="rounded=0;orthogonalLoop=1;jettySize=auto;html=1;entryX=0;entryY=0.25;entryDx=0;entryDy=0;endArrow=none;endFill=0;exitX=0.5;exitY=0;exitDx=0;exitDy=0;" edge="1" parent="1" source="7MaBJJEsDHiTCgpowhhf-5" target="7MaBJJEsDHiTCgpowhhf-3">
          <mxGeometry relative="1" as="geometry" />
        </mxCell>
        <mxCell id="7MaBJJEsDHiTCgpowhhf-15" style="edgeStyle=none;rounded=0;orthogonalLoop=1;jettySize=auto;html=1;entryX=1;entryY=0.5;entryDx=0;entryDy=0;endArrow=none;endFill=0;exitX=0;exitY=0.75;exitDx=0;exitDy=0;" edge="1" parent="1" source="7MaBJJEsDHiTCgpowhhf-5" target="7MaBJJEsDHiTCgpowhhf-10">
          <mxGeometry relative="1" as="geometry" />
        </mxCell>
        <mxCell id="7MaBJJEsDHiTCgpowhhf-75" style="edgeStyle=none;rounded=0;orthogonalLoop=1;jettySize=auto;html=1;entryX=0.5;entryY=0;entryDx=0;entryDy=0;endArrow=none;endFill=0;" edge="1" parent="1" source="7MaBJJEsDHiTCgpowhhf-5" target="7MaBJJEsDHiTCgpowhhf-73">
          <mxGeometry relative="1" as="geometry" />
        </mxCell>
        <mxCell id="7MaBJJEsDHiTCgpowhhf-5" value="donoDePet" style="rounded=0;whiteSpace=wrap;html=1;fontSize=16;" vertex="1" parent="1">
          <mxGeometry x="585" y="675" width="120" height="60" as="geometry" />
        </mxCell>
        <mxCell id="7MaBJJEsDHiTCgpowhhf-8" style="edgeStyle=none;rounded=0;orthogonalLoop=1;jettySize=auto;html=1;entryX=0;entryY=0.75;entryDx=0;entryDy=0;endArrow=none;endFill=0;exitX=0.5;exitY=0;exitDx=0;exitDy=0;" edge="1" parent="1" source="7MaBJJEsDHiTCgpowhhf-6" target="7MaBJJEsDHiTCgpowhhf-3">
          <mxGeometry relative="1" as="geometry" />
        </mxCell>
        <mxCell id="7MaBJJEsDHiTCgpowhhf-14" style="edgeStyle=none;rounded=0;orthogonalLoop=1;jettySize=auto;html=1;endArrow=none;endFill=0;" edge="1" parent="1" source="7MaBJJEsDHiTCgpowhhf-6" target="7MaBJJEsDHiTCgpowhhf-11">
          <mxGeometry relative="1" as="geometry" />
        </mxCell>
        <mxCell id="7MaBJJEsDHiTCgpowhhf-76" style="edgeStyle=none;rounded=0;orthogonalLoop=1;jettySize=auto;html=1;entryX=0.5;entryY=0;entryDx=0;entryDy=0;endArrow=none;endFill=0;" edge="1" parent="1" source="7MaBJJEsDHiTCgpowhhf-6" target="7MaBJJEsDHiTCgpowhhf-74">
          <mxGeometry relative="1" as="geometry" />
        </mxCell>
        <mxCell id="7MaBJJEsDHiTCgpowhhf-6" value="petHero" style="rounded=0;whiteSpace=wrap;html=1;fontSize=16;" vertex="1" parent="1">
          <mxGeometry x="1080" y="675" width="120" height="60" as="geometry" />
        </mxCell>
        <mxCell id="7MaBJJEsDHiTCgpowhhf-16" style="edgeStyle=none;rounded=0;orthogonalLoop=1;jettySize=auto;html=1;entryX=0;entryY=0.25;entryDx=0;entryDy=0;endArrow=none;endFill=0;" edge="1" parent="1" source="7MaBJJEsDHiTCgpowhhf-9" target="7MaBJJEsDHiTCgpowhhf-5">
          <mxGeometry relative="1" as="geometry" />
        </mxCell>
        <mxCell id="7MaBJJEsDHiTCgpowhhf-63" style="edgeStyle=none;rounded=0;orthogonalLoop=1;jettySize=auto;html=1;endArrow=none;endFill=0;entryX=0.5;entryY=1;entryDx=0;entryDy=0;" edge="1" parent="1" source="7MaBJJEsDHiTCgpowhhf-9" target="7MaBJJEsDHiTCgpowhhf-55">
          <mxGeometry relative="1" as="geometry">
            <mxPoint x="630" y="475" as="targetPoint" />
          </mxGeometry>
        </mxCell>
        <mxCell id="7MaBJJEsDHiTCgpowhhf-9" value="pet" style="rounded=0;whiteSpace=wrap;html=1;fontSize=16;" vertex="1" parent="1">
          <mxGeometry x="370" y="545" width="120" height="60" as="geometry" />
        </mxCell>
        <mxCell id="7MaBJJEsDHiTCgpowhhf-10" value="cartaoDeCredito" style="rounded=0;whiteSpace=wrap;html=1;fontSize=16;" vertex="1" parent="1">
          <mxGeometry x="370" y="855" width="120" height="60" as="geometry" />
        </mxCell>
        <mxCell id="7MaBJJEsDHiTCgpowhhf-11" value="contaBancaria" style="rounded=0;whiteSpace=wrap;html=1;fontSize=16;" vertex="1" parent="1">
          <mxGeometry x="1280" y="675" width="120" height="60" as="geometry" />
        </mxCell>
        <mxCell id="7MaBJJEsDHiTCgpowhhf-12" value="endereco" style="rounded=0;whiteSpace=wrap;html=1;fontSize=16;" vertex="1" parent="1">
          <mxGeometry x="1040" y="360" width="120" height="60" as="geometry" />
        </mxCell>
        <mxCell id="7MaBJJEsDHiTCgpowhhf-20" style="edgeStyle=none;rounded=0;orthogonalLoop=1;jettySize=auto;html=1;entryX=0.5;entryY=0;entryDx=0;entryDy=0;endArrow=none;endFill=0;" edge="1" parent="1" source="7MaBJJEsDHiTCgpowhhf-17" target="7MaBJJEsDHiTCgpowhhf-1">
          <mxGeometry relative="1" as="geometry" />
        </mxCell>
        <mxCell id="7MaBJJEsDHiTCgpowhhf-17" value="nome" style="ellipse;whiteSpace=wrap;html=1;fontSize=16;" vertex="1" parent="1">
          <mxGeometry x="770" y="230" width="110" height="50" as="geometry" />
        </mxCell>
        <mxCell id="7MaBJJEsDHiTCgpowhhf-21" style="edgeStyle=none;rounded=0;orthogonalLoop=1;jettySize=auto;html=1;endArrow=none;endFill=0;" edge="1" parent="1" source="7MaBJJEsDHiTCgpowhhf-18">
          <mxGeometry relative="1" as="geometry">
            <mxPoint x="890" y="360" as="targetPoint" />
          </mxGeometry>
        </mxCell>
        <mxCell id="7MaBJJEsDHiTCgpowhhf-18" value="email" style="ellipse;whiteSpace=wrap;html=1;fontSize=16;" vertex="1" parent="1">
          <mxGeometry x="890" y="230" width="110" height="50" as="geometry" />
        </mxCell>
        <mxCell id="7MaBJJEsDHiTCgpowhhf-22" style="edgeStyle=none;rounded=0;orthogonalLoop=1;jettySize=auto;html=1;entryX=0.75;entryY=0;entryDx=0;entryDy=0;endArrow=none;endFill=0;" edge="1" parent="1" source="7MaBJJEsDHiTCgpowhhf-19" target="7MaBJJEsDHiTCgpowhhf-1">
          <mxGeometry relative="1" as="geometry" />
        </mxCell>
        <mxCell id="7MaBJJEsDHiTCgpowhhf-19" value="senha" style="ellipse;whiteSpace=wrap;html=1;fontSize=16;" vertex="1" parent="1">
          <mxGeometry x="1010" y="230" width="110" height="50" as="geometry" />
        </mxCell>
        <mxCell id="7MaBJJEsDHiTCgpowhhf-32" style="edgeStyle=none;rounded=0;orthogonalLoop=1;jettySize=auto;html=1;entryX=0.25;entryY=0;entryDx=0;entryDy=0;endArrow=none;endFill=0;exitX=0;exitY=0.5;exitDx=0;exitDy=0;" edge="1" parent="1" source="7MaBJJEsDHiTCgpowhhf-23" target="7MaBJJEsDHiTCgpowhhf-12">
          <mxGeometry relative="1" as="geometry" />
        </mxCell>
        <mxCell id="7MaBJJEsDHiTCgpowhhf-23" value="cep" style="ellipse;whiteSpace=wrap;html=1;fontSize=16;" vertex="1" parent="1">
          <mxGeometry x="1280" y="20" width="110" height="50" as="geometry" />
        </mxCell>
        <mxCell id="7MaBJJEsDHiTCgpowhhf-33" style="edgeStyle=none;rounded=0;orthogonalLoop=1;jettySize=auto;html=1;entryX=0.5;entryY=0;entryDx=0;entryDy=0;endArrow=none;endFill=0;exitX=0;exitY=0.5;exitDx=0;exitDy=0;" edge="1" parent="1" source="7MaBJJEsDHiTCgpowhhf-24" target="7MaBJJEsDHiTCgpowhhf-12">
          <mxGeometry relative="1" as="geometry" />
        </mxCell>
        <mxCell id="7MaBJJEsDHiTCgpowhhf-24" value="rua" style="ellipse;whiteSpace=wrap;html=1;fontSize=16;" vertex="1" parent="1">
          <mxGeometry x="1280" y="90" width="110" height="50" as="geometry" />
        </mxCell>
        <mxCell id="7MaBJJEsDHiTCgpowhhf-34" style="edgeStyle=none;rounded=0;orthogonalLoop=1;jettySize=auto;html=1;endArrow=none;endFill=0;exitX=0;exitY=0.5;exitDx=0;exitDy=0;" edge="1" parent="1" source="7MaBJJEsDHiTCgpowhhf-25" target="7MaBJJEsDHiTCgpowhhf-12">
          <mxGeometry relative="1" as="geometry" />
        </mxCell>
        <mxCell id="7MaBJJEsDHiTCgpowhhf-25" value="numero" style="ellipse;whiteSpace=wrap;html=1;fontSize=16;" vertex="1" parent="1">
          <mxGeometry x="1280" y="160" width="110" height="50" as="geometry" />
        </mxCell>
        <mxCell id="7MaBJJEsDHiTCgpowhhf-35" style="edgeStyle=none;rounded=0;orthogonalLoop=1;jettySize=auto;html=1;entryX=1;entryY=0;entryDx=0;entryDy=0;endArrow=none;endFill=0;" edge="1" parent="1" source="7MaBJJEsDHiTCgpowhhf-26" target="7MaBJJEsDHiTCgpowhhf-12">
          <mxGeometry relative="1" as="geometry" />
        </mxCell>
        <mxCell id="7MaBJJEsDHiTCgpowhhf-26" value="bairro" style="ellipse;whiteSpace=wrap;html=1;fontSize=16;" vertex="1" parent="1">
          <mxGeometry x="1280" y="230" width="110" height="50" as="geometry" />
        </mxCell>
        <mxCell id="7MaBJJEsDHiTCgpowhhf-36" style="edgeStyle=none;rounded=0;orthogonalLoop=1;jettySize=auto;html=1;entryX=1;entryY=0.25;entryDx=0;entryDy=0;endArrow=none;endFill=0;" edge="1" parent="1" source="7MaBJJEsDHiTCgpowhhf-27" target="7MaBJJEsDHiTCgpowhhf-12">
          <mxGeometry relative="1" as="geometry" />
        </mxCell>
        <mxCell id="7MaBJJEsDHiTCgpowhhf-27" value="cidade" style="ellipse;whiteSpace=wrap;html=1;fontSize=16;" vertex="1" parent="1">
          <mxGeometry x="1280" y="300" width="110" height="50" as="geometry" />
        </mxCell>
        <mxCell id="7MaBJJEsDHiTCgpowhhf-37" style="edgeStyle=none;rounded=0;orthogonalLoop=1;jettySize=auto;html=1;entryX=1;entryY=0.5;entryDx=0;entryDy=0;endArrow=none;endFill=0;" edge="1" parent="1" source="7MaBJJEsDHiTCgpowhhf-28" target="7MaBJJEsDHiTCgpowhhf-12">
          <mxGeometry relative="1" as="geometry" />
        </mxCell>
        <mxCell id="7MaBJJEsDHiTCgpowhhf-28" value="estado" style="ellipse;whiteSpace=wrap;html=1;fontSize=16;" vertex="1" parent="1">
          <mxGeometry x="1280" y="370" width="110" height="50" as="geometry" />
        </mxCell>
        <mxCell id="7MaBJJEsDHiTCgpowhhf-38" style="edgeStyle=none;rounded=0;orthogonalLoop=1;jettySize=auto;html=1;entryX=1;entryY=0.75;entryDx=0;entryDy=0;endArrow=none;endFill=0;" edge="1" parent="1" source="7MaBJJEsDHiTCgpowhhf-29" target="7MaBJJEsDHiTCgpowhhf-12">
          <mxGeometry relative="1" as="geometry" />
        </mxCell>
        <mxCell id="7MaBJJEsDHiTCgpowhhf-29" value="latitude" style="ellipse;whiteSpace=wrap;html=1;fontSize=16;" vertex="1" parent="1">
          <mxGeometry x="1280" y="440" width="110" height="50" as="geometry" />
        </mxCell>
        <mxCell id="7MaBJJEsDHiTCgpowhhf-39" style="edgeStyle=none;rounded=0;orthogonalLoop=1;jettySize=auto;html=1;entryX=1;entryY=1;entryDx=0;entryDy=0;endArrow=none;endFill=0;" edge="1" parent="1" source="7MaBJJEsDHiTCgpowhhf-30" target="7MaBJJEsDHiTCgpowhhf-12">
          <mxGeometry relative="1" as="geometry" />
        </mxCell>
        <mxCell id="7MaBJJEsDHiTCgpowhhf-30" value="longitude" style="ellipse;whiteSpace=wrap;html=1;fontSize=16;" vertex="1" parent="1">
          <mxGeometry x="1280" y="510" width="110" height="50" as="geometry" />
        </mxCell>
        <mxCell id="7MaBJJEsDHiTCgpowhhf-44" style="edgeStyle=none;rounded=0;orthogonalLoop=1;jettySize=auto;html=1;entryX=1;entryY=0;entryDx=0;entryDy=0;endArrow=none;endFill=0;exitX=0;exitY=0.5;exitDx=0;exitDy=0;" edge="1" parent="1" source="7MaBJJEsDHiTCgpowhhf-40" target="7MaBJJEsDHiTCgpowhhf-11">
          <mxGeometry relative="1" as="geometry" />
        </mxCell>
        <mxCell id="7MaBJJEsDHiTCgpowhhf-40" value="banco" style="ellipse;whiteSpace=wrap;html=1;fontSize=16;" vertex="1" parent="1">
          <mxGeometry x="1465" y="565" width="110" height="50" as="geometry" />
        </mxCell>
        <mxCell id="7MaBJJEsDHiTCgpowhhf-45" style="edgeStyle=none;rounded=0;orthogonalLoop=1;jettySize=auto;html=1;entryX=1;entryY=0.25;entryDx=0;entryDy=0;endArrow=none;endFill=0;exitX=0;exitY=0.5;exitDx=0;exitDy=0;" edge="1" parent="1" source="7MaBJJEsDHiTCgpowhhf-41" target="7MaBJJEsDHiTCgpowhhf-11">
          <mxGeometry relative="1" as="geometry" />
        </mxCell>
        <mxCell id="7MaBJJEsDHiTCgpowhhf-41" value="tipoDeConta" style="ellipse;whiteSpace=wrap;html=1;fontSize=16;" vertex="1" parent="1">
          <mxGeometry x="1465" y="635" width="110" height="50" as="geometry" />
        </mxCell>
        <mxCell id="7MaBJJEsDHiTCgpowhhf-46" style="edgeStyle=none;rounded=0;orthogonalLoop=1;jettySize=auto;html=1;entryX=1;entryY=0.5;entryDx=0;entryDy=0;endArrow=none;endFill=0;exitX=0;exitY=0.5;exitDx=0;exitDy=0;" edge="1" parent="1" source="7MaBJJEsDHiTCgpowhhf-42" target="7MaBJJEsDHiTCgpowhhf-11">
          <mxGeometry relative="1" as="geometry" />
        </mxCell>
        <mxCell id="7MaBJJEsDHiTCgpowhhf-42" value="agenca" style="ellipse;whiteSpace=wrap;html=1;fontSize=16;" vertex="1" parent="1">
          <mxGeometry x="1465" y="705" width="110" height="50" as="geometry" />
        </mxCell>
        <mxCell id="7MaBJJEsDHiTCgpowhhf-47" style="edgeStyle=none;rounded=0;orthogonalLoop=1;jettySize=auto;html=1;entryX=1;entryY=0.75;entryDx=0;entryDy=0;endArrow=none;endFill=0;exitX=0;exitY=0.5;exitDx=0;exitDy=0;" edge="1" parent="1" source="7MaBJJEsDHiTCgpowhhf-43" target="7MaBJJEsDHiTCgpowhhf-11">
          <mxGeometry relative="1" as="geometry" />
        </mxCell>
        <mxCell id="7MaBJJEsDHiTCgpowhhf-43" value="conta" style="ellipse;whiteSpace=wrap;html=1;fontSize=16;" vertex="1" parent="1">
          <mxGeometry x="1465" y="775" width="110" height="50" as="geometry" />
        </mxCell>
        <mxCell id="7MaBJJEsDHiTCgpowhhf-56" style="edgeStyle=none;rounded=0;orthogonalLoop=1;jettySize=auto;html=1;entryX=0;entryY=1;entryDx=0;entryDy=0;endArrow=none;endFill=0;" edge="1" parent="1" source="7MaBJJEsDHiTCgpowhhf-48" target="7MaBJJEsDHiTCgpowhhf-9">
          <mxGeometry relative="1" as="geometry" />
        </mxCell>
        <mxCell id="7MaBJJEsDHiTCgpowhhf-48" value="especie" style="ellipse;whiteSpace=wrap;html=1;fontSize=16;" vertex="1" parent="1">
          <mxGeometry x="170" y="695" width="110" height="50" as="geometry" />
        </mxCell>
        <mxCell id="7MaBJJEsDHiTCgpowhhf-57" style="edgeStyle=none;rounded=0;orthogonalLoop=1;jettySize=auto;html=1;entryX=0;entryY=0.75;entryDx=0;entryDy=0;endArrow=none;endFill=0;" edge="1" parent="1" source="7MaBJJEsDHiTCgpowhhf-49" target="7MaBJJEsDHiTCgpowhhf-9">
          <mxGeometry relative="1" as="geometry" />
        </mxCell>
        <mxCell id="7MaBJJEsDHiTCgpowhhf-49" value="raca" style="ellipse;whiteSpace=wrap;html=1;fontSize=16;" vertex="1" parent="1">
          <mxGeometry x="170" y="615" width="110" height="50" as="geometry" />
        </mxCell>
        <mxCell id="7MaBJJEsDHiTCgpowhhf-58" style="edgeStyle=none;rounded=0;orthogonalLoop=1;jettySize=auto;html=1;entryX=0;entryY=0.25;entryDx=0;entryDy=0;endArrow=none;endFill=0;" edge="1" parent="1" source="7MaBJJEsDHiTCgpowhhf-50" target="7MaBJJEsDHiTCgpowhhf-9">
          <mxGeometry relative="1" as="geometry" />
        </mxCell>
        <mxCell id="7MaBJJEsDHiTCgpowhhf-50" value="especie" style="ellipse;whiteSpace=wrap;html=1;fontSize=16;" vertex="1" parent="1">
          <mxGeometry x="170" y="525" width="110" height="50" as="geometry" />
        </mxCell>
        <mxCell id="7MaBJJEsDHiTCgpowhhf-59" style="edgeStyle=none;rounded=0;orthogonalLoop=1;jettySize=auto;html=1;entryX=0.058;entryY=0.033;entryDx=0;entryDy=0;entryPerimeter=0;endArrow=none;endFill=0;" edge="1" parent="1" source="7MaBJJEsDHiTCgpowhhf-51" target="7MaBJJEsDHiTCgpowhhf-9">
          <mxGeometry relative="1" as="geometry" />
        </mxCell>
        <mxCell id="7MaBJJEsDHiTCgpowhhf-51" value="raca" style="ellipse;whiteSpace=wrap;html=1;fontSize=16;" vertex="1" parent="1">
          <mxGeometry x="170" y="445" width="110" height="50" as="geometry" />
        </mxCell>
        <mxCell id="7MaBJJEsDHiTCgpowhhf-60" style="edgeStyle=none;rounded=0;orthogonalLoop=1;jettySize=auto;html=1;entryX=0.25;entryY=0;entryDx=0;entryDy=0;endArrow=none;endFill=0;" edge="1" parent="1" source="7MaBJJEsDHiTCgpowhhf-52" target="7MaBJJEsDHiTCgpowhhf-9">
          <mxGeometry relative="1" as="geometry" />
        </mxCell>
        <mxCell id="7MaBJJEsDHiTCgpowhhf-52" value="nome" style="ellipse;whiteSpace=wrap;html=1;fontSize=16;" vertex="1" parent="1">
          <mxGeometry x="220" y="360" width="110" height="50" as="geometry" />
        </mxCell>
        <mxCell id="7MaBJJEsDHiTCgpowhhf-61" style="edgeStyle=none;rounded=0;orthogonalLoop=1;jettySize=auto;html=1;entryX=0.5;entryY=0;entryDx=0;entryDy=0;endArrow=none;endFill=0;" edge="1" parent="1" source="7MaBJJEsDHiTCgpowhhf-53" target="7MaBJJEsDHiTCgpowhhf-9">
          <mxGeometry relative="1" as="geometry" />
        </mxCell>
        <mxCell id="7MaBJJEsDHiTCgpowhhf-53" value="porte" style="ellipse;whiteSpace=wrap;html=1;fontSize=16;" vertex="1" parent="1">
          <mxGeometry x="350" y="360" width="110" height="50" as="geometry" />
        </mxCell>
        <mxCell id="7MaBJJEsDHiTCgpowhhf-62" style="edgeStyle=none;rounded=0;orthogonalLoop=1;jettySize=auto;html=1;entryX=0.75;entryY=0;entryDx=0;entryDy=0;endArrow=none;endFill=0;" edge="1" parent="1" source="7MaBJJEsDHiTCgpowhhf-54" target="7MaBJJEsDHiTCgpowhhf-9">
          <mxGeometry relative="1" as="geometry" />
        </mxCell>
        <mxCell id="7MaBJJEsDHiTCgpowhhf-54" value="idade" style="ellipse;whiteSpace=wrap;html=1;fontSize=16;" vertex="1" parent="1">
          <mxGeometry x="480" y="360" width="110" height="50" as="geometry" />
        </mxCell>
        <mxCell id="7MaBJJEsDHiTCgpowhhf-55" value="personalidade" style="ellipse;whiteSpace=wrap;html=1;fontSize=16;" vertex="1" parent="1">
          <mxGeometry x="600" y="360" width="110" height="50" as="geometry" />
        </mxCell>
        <mxCell id="7MaBJJEsDHiTCgpowhhf-69" style="edgeStyle=none;rounded=0;orthogonalLoop=1;jettySize=auto;html=1;entryX=0;entryY=0;entryDx=0;entryDy=0;endArrow=none;endFill=0;exitX=1;exitY=0.5;exitDx=0;exitDy=0;" edge="1" parent="1" source="7MaBJJEsDHiTCgpowhhf-64" target="7MaBJJEsDHiTCgpowhhf-10">
          <mxGeometry relative="1" as="geometry" />
        </mxCell>
        <mxCell id="7MaBJJEsDHiTCgpowhhf-64" value="numero" style="ellipse;whiteSpace=wrap;html=1;fontSize=16;" vertex="1" parent="1">
          <mxGeometry x="150" y="785" width="110" height="50" as="geometry" />
        </mxCell>
        <mxCell id="7MaBJJEsDHiTCgpowhhf-70" style="edgeStyle=none;rounded=0;orthogonalLoop=1;jettySize=auto;html=1;entryX=0;entryY=0.25;entryDx=0;entryDy=0;endArrow=none;endFill=0;" edge="1" parent="1" source="7MaBJJEsDHiTCgpowhhf-65" target="7MaBJJEsDHiTCgpowhhf-10">
          <mxGeometry relative="1" as="geometry" />
        </mxCell>
        <mxCell id="7MaBJJEsDHiTCgpowhhf-65" value="nomeTitular" style="ellipse;whiteSpace=wrap;html=1;fontSize=16;" vertex="1" parent="1">
          <mxGeometry x="150" y="845" width="110" height="50" as="geometry" />
        </mxCell>
        <mxCell id="7MaBJJEsDHiTCgpowhhf-71" style="edgeStyle=none;rounded=0;orthogonalLoop=1;jettySize=auto;html=1;endArrow=none;endFill=0;exitX=1;exitY=0.5;exitDx=0;exitDy=0;" edge="1" parent="1" source="7MaBJJEsDHiTCgpowhhf-66" target="7MaBJJEsDHiTCgpowhhf-10">
          <mxGeometry relative="1" as="geometry" />
        </mxCell>
        <mxCell id="7MaBJJEsDHiTCgpowhhf-66" value="dataVencimento" style="ellipse;whiteSpace=wrap;html=1;fontSize=16;" vertex="1" parent="1">
          <mxGeometry x="130" y="905" width="130" height="50" as="geometry" />
        </mxCell>
        <mxCell id="7MaBJJEsDHiTCgpowhhf-72" style="edgeStyle=none;rounded=0;orthogonalLoop=1;jettySize=auto;html=1;entryX=0;entryY=1;entryDx=0;entryDy=0;endArrow=none;endFill=0;exitX=1;exitY=0.5;exitDx=0;exitDy=0;" edge="1" parent="1" source="7MaBJJEsDHiTCgpowhhf-68" target="7MaBJJEsDHiTCgpowhhf-10">
          <mxGeometry relative="1" as="geometry" />
        </mxCell>
        <mxCell id="7MaBJJEsDHiTCgpowhhf-68" value="cvv" style="ellipse;whiteSpace=wrap;html=1;fontSize=16;" vertex="1" parent="1">
          <mxGeometry x="150" y="965" width="110" height="50" as="geometry" />
        </mxCell>
        <mxCell id="7MaBJJEsDHiTCgpowhhf-78" style="edgeStyle=none;rounded=0;orthogonalLoop=1;jettySize=auto;html=1;entryX=0;entryY=0.5;entryDx=0;entryDy=0;endArrow=none;endFill=0;" edge="1" parent="1" source="7MaBJJEsDHiTCgpowhhf-73" target="7MaBJJEsDHiTCgpowhhf-77">
          <mxGeometry relative="1" as="geometry" />
        </mxCell>
        <mxCell id="7MaBJJEsDHiTCgpowhhf-73" value="&lt;font style=&quot;font-size: 16px;&quot;&gt;cria&lt;/font&gt;" style="rhombus;whiteSpace=wrap;html=1;fontSize=16;" vertex="1" parent="1">
          <mxGeometry x="580" y="830" width="130" height="80" as="geometry" />
        </mxCell>
        <mxCell id="7MaBJJEsDHiTCgpowhhf-74" value="&lt;font style=&quot;font-size: 16px;&quot;&gt;faz&lt;/font&gt;" style="rhombus;whiteSpace=wrap;html=1;fontSize=16;" vertex="1" parent="1">
          <mxGeometry x="1075" y="830" width="130" height="80" as="geometry" />
        </mxCell>
        <mxCell id="7MaBJJEsDHiTCgpowhhf-79" style="edgeStyle=none;rounded=0;orthogonalLoop=1;jettySize=auto;html=1;entryX=0;entryY=0.5;entryDx=0;entryDy=0;endArrow=none;endFill=0;exitX=1;exitY=0.5;exitDx=0;exitDy=0;" edge="1" parent="1" source="7MaBJJEsDHiTCgpowhhf-77" target="7MaBJJEsDHiTCgpowhhf-74">
          <mxGeometry relative="1" as="geometry">
            <mxPoint x="1040" y="865.0000000000005" as="sourcePoint" />
          </mxGeometry>
        </mxCell>
        <mxCell id="7MaBJJEsDHiTCgpowhhf-77" value="&lt;font style=&quot;font-size: 16px&quot;&gt;passeio&lt;/font&gt;" style="rounded=0;whiteSpace=wrap;html=1;" vertex="1" parent="1">
          <mxGeometry x="835" y="840" width="120" height="60" as="geometry" />
        </mxCell>
        <mxCell id="7MaBJJEsDHiTCgpowhhf-88" style="edgeStyle=none;rounded=0;orthogonalLoop=1;jettySize=auto;html=1;entryX=0;entryY=1;entryDx=0;entryDy=0;endArrow=none;endFill=0;exitX=1;exitY=0.5;exitDx=0;exitDy=0;" edge="1" parent="1" source="7MaBJJEsDHiTCgpowhhf-103" target="7MaBJJEsDHiTCgpowhhf-77">
          <mxGeometry relative="1" as="geometry">
            <mxPoint x="730" y="965" as="sourcePoint" />
          </mxGeometry>
        </mxCell>
        <mxCell id="7MaBJJEsDHiTCgpowhhf-89" style="edgeStyle=none;rounded=0;orthogonalLoop=1;jettySize=auto;html=1;entryX=0.25;entryY=1;entryDx=0;entryDy=0;endArrow=none;endFill=0;" edge="1" parent="1" source="7MaBJJEsDHiTCgpowhhf-81" target="7MaBJJEsDHiTCgpowhhf-77">
          <mxGeometry relative="1" as="geometry" />
        </mxCell>
        <mxCell id="7MaBJJEsDHiTCgpowhhf-81" value="data" style="ellipse;whiteSpace=wrap;html=1;fontSize=16;" vertex="1" parent="1">
          <mxGeometry x="660" y="1020" width="110" height="50" as="geometry" />
        </mxCell>
        <mxCell id="7MaBJJEsDHiTCgpowhhf-90" style="edgeStyle=none;rounded=0;orthogonalLoop=1;jettySize=auto;html=1;entryX=0.5;entryY=1;entryDx=0;entryDy=0;endArrow=none;endFill=0;" edge="1" parent="1" source="7MaBJJEsDHiTCgpowhhf-82" target="7MaBJJEsDHiTCgpowhhf-77">
          <mxGeometry relative="1" as="geometry" />
        </mxCell>
        <mxCell id="7MaBJJEsDHiTCgpowhhf-82" value="valor" style="ellipse;whiteSpace=wrap;html=1;fontSize=16;" vertex="1" parent="1">
          <mxGeometry x="780" y="1020" width="110" height="50" as="geometry" />
        </mxCell>
        <mxCell id="7MaBJJEsDHiTCgpowhhf-91" style="edgeStyle=none;rounded=0;orthogonalLoop=1;jettySize=auto;html=1;entryX=0.5;entryY=1;entryDx=0;entryDy=0;endArrow=none;endFill=0;" edge="1" parent="1" source="7MaBJJEsDHiTCgpowhhf-83" target="7MaBJJEsDHiTCgpowhhf-77">
          <mxGeometry relative="1" as="geometry" />
        </mxCell>
        <mxCell id="7MaBJJEsDHiTCgpowhhf-83" value="horário" style="ellipse;whiteSpace=wrap;html=1;fontSize=16;" vertex="1" parent="1">
          <mxGeometry x="900" y="1020" width="110" height="50" as="geometry" />
        </mxCell>
        <mxCell id="7MaBJJEsDHiTCgpowhhf-92" style="edgeStyle=none;rounded=0;orthogonalLoop=1;jettySize=auto;html=1;entryX=0.75;entryY=1;entryDx=0;entryDy=0;endArrow=none;endFill=0;exitX=0;exitY=0;exitDx=0;exitDy=0;" edge="1" parent="1" source="7MaBJJEsDHiTCgpowhhf-84" target="7MaBJJEsDHiTCgpowhhf-77">
          <mxGeometry relative="1" as="geometry" />
        </mxCell>
        <mxCell id="7MaBJJEsDHiTCgpowhhf-84" value="localizacao" style="ellipse;whiteSpace=wrap;html=1;" vertex="1" parent="1">
          <mxGeometry x="1025" y="1020" width="110" height="50" as="geometry" />
        </mxCell>
        <mxCell id="7MaBJJEsDHiTCgpowhhf-94" style="edgeStyle=none;rounded=0;orthogonalLoop=1;jettySize=auto;html=1;entryX=1;entryY=1;entryDx=0;entryDy=0;endArrow=none;endFill=0;exitX=0;exitY=0.5;exitDx=0;exitDy=0;" edge="1" parent="1" source="7MaBJJEsDHiTCgpowhhf-93" target="7MaBJJEsDHiTCgpowhhf-77">
          <mxGeometry relative="1" as="geometry" />
        </mxCell>
        <mxCell id="7MaBJJEsDHiTCgpowhhf-93" value="foto" style="ellipse;whiteSpace=wrap;html=1;" vertex="1" parent="1">
          <mxGeometry x="1040" y="930" width="110" height="50" as="geometry" />
        </mxCell>
        <mxCell id="7MaBJJEsDHiTCgpowhhf-95" value="&lt;font style=&quot;font-size: 16px&quot;&gt;foto&lt;/font&gt;" style="ellipse;whiteSpace=wrap;html=1;" vertex="1" parent="1">
          <mxGeometry x="1050" y="935" width="90" height="40" as="geometry" />
        </mxCell>
        <mxCell id="7MaBJJEsDHiTCgpowhhf-96" value="&lt;font style=&quot;font-size: 16px&quot;&gt;localizacao&lt;/font&gt;" style="ellipse;whiteSpace=wrap;html=1;" vertex="1" parent="1">
          <mxGeometry x="1032.5" y="1025" width="95" height="40" as="geometry" />
        </mxCell>
        <mxCell id="7MaBJJEsDHiTCgpowhhf-98" style="edgeStyle=none;rounded=0;orthogonalLoop=1;jettySize=auto;html=1;entryX=1;entryY=0;entryDx=0;entryDy=0;fontSize=16;endArrow=none;endFill=0;" edge="1" parent="1" source="7MaBJJEsDHiTCgpowhhf-97" target="7MaBJJEsDHiTCgpowhhf-9">
          <mxGeometry relative="1" as="geometry" />
        </mxCell>
        <mxCell id="7MaBJJEsDHiTCgpowhhf-97" value="foto" style="ellipse;whiteSpace=wrap;html=1;fontSize=16;" vertex="1" parent="1">
          <mxGeometry x="610" y="455" width="110" height="50" as="geometry" />
        </mxCell>
        <mxCell id="7MaBJJEsDHiTCgpowhhf-99" style="edgeStyle=none;rounded=0;orthogonalLoop=1;jettySize=auto;html=1;exitX=0;exitY=1;exitDx=0;exitDy=0;fontSize=16;endArrow=none;endFill=0;" edge="1" parent="1" source="7MaBJJEsDHiTCgpowhhf-18" target="7MaBJJEsDHiTCgpowhhf-18">
          <mxGeometry relative="1" as="geometry" />
        </mxCell>
        <mxCell id="7MaBJJEsDHiTCgpowhhf-102" style="edgeStyle=none;rounded=0;orthogonalLoop=1;jettySize=auto;html=1;entryX=0.25;entryY=0;entryDx=0;entryDy=0;fontSize=16;endArrow=none;endFill=0;" edge="1" parent="1" source="7MaBJJEsDHiTCgpowhhf-101" target="7MaBJJEsDHiTCgpowhhf-1">
          <mxGeometry relative="1" as="geometry" />
        </mxCell>
        <mxCell id="7MaBJJEsDHiTCgpowhhf-101" value="foto" style="ellipse;whiteSpace=wrap;html=1;fontSize=16;" vertex="1" parent="1">
          <mxGeometry x="650" y="230" width="110" height="50" as="geometry" />
        </mxCell>
        <mxCell id="7MaBJJEsDHiTCgpowhhf-103" value="endereco" style="rounded=0;whiteSpace=wrap;html=1;fontSize=16;" vertex="1" parent="1">
          <mxGeometry x="595" y="935" width="120" height="60" as="geometry" />
        </mxCell>
      </root>
    </mxGraphModel>
  </diagram>
</mxfile>
